<svg id="Layer_1" enable-background="new 0 0 507.752 507.752" height="512" viewBox="0 0 507.752 507.752" width="512" xmlns="http://www.w3.org/2000/svg"><g><path d="m503.12 339.798c-5.91 9.63-16.18 14.94-26.71 14.94-5.58 0-11.23-1.5-16.34-4.63l-221.74-136.11 19.88-26.8z" fill="#bc8372"/><path d="m503.12 339.798-244.91-152.6 17.56-23.68 217.05 133.23c14.73 9.04 19.35 28.319 10.3 43.05z" fill="#d9ac8d"/><path d="m254.35 395.937v39.01h-108.92v-92.61h55.32c29.55 0 53.6 24.051 53.6 53.6z" fill="#bc8372"/><path d="m145.43 342.337v92.61h-108.91v-39.01c0-29.55 24.05-53.6 53.6-53.6z" fill="#d9ac8d"/><path d="m272.89 196.338-17.675 28.792-15.542-1.285c-5.047 8.224-2.88 25.18-2.88 25.18-8.356 8.578-17.885 16.008-28.293 22.003l-23.859 13.749-74.015-46.131 1.414-26.818c.638-11.996 2.949-23.856 6.815-35.193 0 0 10.108-2.692 12.105-6.968 2.077-4.448.863-20.275.863-20.275l18.177-29.614z" fill="#ffe666"/><path d="m309.857 81.306-1.427 26.911c-.638 12.001-2.949 23.864-6.813 35.199 0 0-10.382 6.443-15.429 14.666l2.464 12.579-15.762 25.676-122.89-76.559 15.253-24.858 14.717-.461c5.051-8.222 3.71-23.431 3.71-23.431 8.359-8.578 17.889-16.009 28.299-22.01l23.416-12.658z" fill="#fff7cc"/><path d="m252.552-16.831h30v166.957h-30z" fill="#d9ac8d" transform="matrix(.523 -.852 .852 .523 70.79 259.807)"/><path d="m137.92 169.926h30v166.957h-30z" fill="#bc8372" transform="matrix(.523 -.852 .852 .523 -143.041 251.172)"/><path d="m183.685 71.032c-6.713 6.89-12.674 14.516-17.721 22.74l-.706 1.15 123.392 75.738.706-1.15c5.047-8.224 9.149-16.991 12.254-26.096z" fill="#ffe0ba"/><path d="m131.823 149.391-.706 1.151c-5.047 8.224-9.148 16.991-12.253 26.096l117.925 72.383c6.713-6.89 12.674-14.517 17.721-22.74l.706-1.15z" fill="#d9ac8d"/><path d="m290.87 465.678v31.88h-145.44v-80.88h96.45c27.01 0 48.99 21.98 48.99 49z" fill="#d9ac8d"/><path d="m145.43 416.678v80.88h-145.43v-31.88c0-27.02 21.98-49 48.99-49z" fill="#ffe0ba"/></g></svg>