<svg id="Capa_1" enable-background="new 0 0 512 512" height="512" viewBox="0 0 512 512" width="512" xmlns="http://www.w3.org/2000/svg"><g><g clip-rule="evenodd" fill-rule="evenodd"><path d="m247.912 227.101v-153.071c0-11.083-9.071-20.153-20.154-20.153h-144.227c-11.084 0-20.154 9.07-20.154 20.153v153.07h184.535z" fill="#bf8e5e"/><path d="m247.912 227.101v-153.071c0-11.083-9.071-20.153-20.154-20.153h-30.246c11.084 0 20.154 9.07 20.154 20.153v153.07h30.246z" fill="#a87547"/><path d="m151.336 222.055h-103.38l-7.03 4.479v247.718c0 4.225 2.098 6.066 6.038 6.066h104.372z" fill="#ffc269"/><path d="m116.073 222.055h30.246v258.264h-30.246z" fill="#e7a561"/><path d="m471.055 474.252c0 3.94-1.672 6.066-6.038 6.066h-318.698v-258.263h312.66l12.076 11.48z" fill="#ffe07d"/><path d="m471.055 474.252c0 3.94-1.672 6.066-6.038 6.066h-24.208v-182.975h30.246z" fill="#ffc269"/><path d="m146.319 222.055h-99.355c-6.746 0-7.171 1.984-9.042 5.244l-37.021 64.771c-1.842 3.261-.878 5.272 3.062 5.272h93.288c4.224 0 7.087-1.841 9.042-5.272z" fill="#ffe07d"/><path d="m440.497 232.145v-87.562c0-16.611-13.635-30.245-30.246-30.245h-58.478c-16.64 0-30.246 13.634-30.246 30.245v87.562z" fill="#f4fbff"/><path d="m440.497 232.145v-87.562c0-16.611-13.635-30.245-30.246-30.245h-30.246c16.611 0 30.246 13.634 30.246 30.245v87.562z" fill="#e4f6ff"/></g><path d="m451.071 64.449c4.167 0 7.568 3.373 7.568 7.567 0 4.168-3.402 7.541-7.568 7.541h-40.819c-4.195 0-7.568-3.373-7.568-7.541 0-4.194 3.373-7.567 7.568-7.567z" fill="#75cef9"/><path clip-rule="evenodd" d="m410.251 114.339v-62.503c0-11.084-9.099-20.154-20.183-20.154h-18.142c-11.083 0-20.154 9.07-20.154 20.154v62.503z" fill="#b1e4f9" fill-rule="evenodd"/><path clip-rule="evenodd" d="m410.251 114.339v-62.503c0-11.084-9.099-20.154-20.183-20.154h-18.142c-2.098 0-4.139.34-6.038.935 8.135 2.579 14.116 10.233 14.116 19.22v62.503h30.247z" fill="#90d8f9" fill-rule="evenodd"/><path clip-rule="evenodd" d="m282.211 173.837v-37.303c0-11.084-9.099-20.154-20.183-20.154h-49.89c-11.084 0-20.154 9.07-20.154 20.154v37.303z" fill="#78c2a4" fill-rule="evenodd"/><path clip-rule="evenodd" d="m282.211 173.837v-37.303c0-11.084-9.099-20.154-20.183-20.154h-30.246c11.083 0 20.183 9.07 20.183 20.154v37.303z" fill="#55aaa0" fill-rule="evenodd"/><path clip-rule="evenodd" d="m181.893 222.055 58.11 13.606 52.271-13.606-10.063-53.263h-90.227z" fill="#aadca5" fill-rule="evenodd"/><path clip-rule="evenodd" d="m262.028 222.055h30.246l-10.063-53.263h-30.245z" fill="#87cda0" fill-rule="evenodd"/><path d="m189.32 355.311c-4.167 0-7.568-3.401-7.568-7.568s3.401-7.568 7.568-7.568h162.369c4.195 0 7.568 3.401 7.568 7.568s-3.373 7.568-7.568 7.568zm0 70.555c-4.167 0-7.568-3.373-7.568-7.541 0-4.195 3.401-7.568 7.568-7.568h109.503c4.195 0 7.568 3.373 7.568 7.568 0 4.168-3.373 7.541-7.568 7.541zm0-35.292c-4.167 0-7.568-3.373-7.568-7.54 0-4.195 3.401-7.568 7.568-7.568h162.369c4.195 0 7.568 3.373 7.568 7.568 0 4.167-3.373 7.54-7.568 7.54z" fill="#ffa95f"/><path clip-rule="evenodd" d="m357.81 149.601h46.375c3.345 0 6.066 2.722 6.066 6.066v25.087c0 3.316-2.721 6.038-6.066 6.038h-46.375c-3.316 0-6.037-2.722-6.037-6.038v-25.087c0-3.345 2.721-6.066 6.037-6.066z" fill="#90d8f9" fill-rule="evenodd"/><path clip-rule="evenodd" d="m373.94 149.601h30.246c3.345 0 6.066 2.722 6.066 6.066v25.087c0 3.316-2.721 6.038-6.066 6.038h-30.246c3.345 0 6.066-2.722 6.066-6.038v-25.087c0-3.345-2.721-6.066-6.066-6.066z" fill="#75cef9" fill-rule="evenodd"/><path clip-rule="evenodd" d="m146.319 222.055h318.698c4.025 0 6.86 1.417 9.043 5.244l37.02 64.771c1.898 3.317.85 5.272-3.061 5.272h-312.662c-3.43 0-6.774-1.304-9.042-5.272z" fill="#fff0af" fill-rule="evenodd"/></g></svg>